<svg width="13" height="22" viewBox="0 0 13 22" fill="none" xmlns="http://www.w3.org/2000/svg">
<path d="M12.2076 20.2926C12.3005 20.3855 12.3742 20.4958 12.4244 20.6172C12.4747 20.7386 12.5006 20.8687 12.5006 21.0001C12.5006 21.1315 12.4747 21.2616 12.4244 21.383C12.3742 21.5044 12.3005 21.6147 12.2076 21.7076C12.1146 21.8005 12.0043 21.8742 11.883 21.9245C11.7616 21.9747 11.6314 22.0006 11.5001 22.0006C11.3687 22.0006 11.2386 21.9747 11.1172 21.9245C10.9958 21.8742 10.8855 21.8005 10.7926 21.7076L0.792554 11.7076C0.699577 11.6147 0.625819 11.5044 0.575495 11.383C0.52517 11.2616 0.499268 11.1315 0.499268 11.0001C0.499268 10.8687 0.52517 10.7385 0.575495 10.6171C0.625819 10.4957 0.699577 10.3854 0.792554 10.2926L10.7926 0.292568C10.9802 0.104927 11.2347 -0.000488286 11.5001 -0.000488281C11.7654 -0.000488276 12.0199 0.104927 12.2076 0.292568C12.3952 0.480208 12.5006 0.734704 12.5006 1.00007C12.5006 1.26543 12.3952 1.51993 12.2076 1.70757L2.9138 11.0001L12.2076 20.2926Z" fill="white"/>
</svg>
